:FULLY-SPECIFIED
:FORCE-ALL-JOINTS-BE-3DOF
:DEGREES
34
root 5.98354 16.9006 -28.0767 9.97965 -1.86636 -2.25667
lfemur -20.0849 1.64895 -19.7837
ltibia 33.7656 -0 0
lfoot -36.0065 4.25071 4.39187e-05
ltoes 36.1891 -0 0
rfemur -16.8113 7.34118 19.5572
rtibia 30.5771 -0 0
rfoot -27.394 -19.0938 -0.000196054
rtoes 14.8796 -0 0
lowerback -5.44662 2.55312 -1.00508
upperback -1.90917 3.44314 0.843401
thorax 0.973286 1.72626 1.6377
lowerneck -9.54855 -1.65049 2.66867
upperneck -2.60935 -2.46555 0.729169
head 0.751322 -1.23614 -0.302712
lclavicle -0 0 0
lhumerus -41.5133 -12.7174 97.0796
lradius 38.766 -0 0
lwrist 5.66196 0 0
lhand -11.3082 5.75218 0.00183886
lfingers 0 -0 0
lthumb 14.7235 35.209 0.00171079
rclavicle -0 0 0
rhumerus -40.6389 -5.08062 -88.6513
rradius 39.1443 -0 0
rwrist 11.1008 0 0
rhand -26.8339 -19.9383 2.44088e-05
rfingers 0 -0 0
rthumb -0.259701 -49.918 2.35155e-05
35
root 5.97634 16.9011 -28.0773 10.0026 -1.87165 -2.21521
lfemur -20.093 1.66102 -19.8023
ltibia 33.7336 -0 0
lfoot -35.9319 4.25746 2.63512e-05
ltoes 36.0316 -0 0
rfemur -16.8088 7.36672 19.5352
rtibia 30.537 -0 0
rfoot -27.3546 -19.1508 -0.000117633
rtoes 14.6412 -0 0
lowerback -5.50732 2.53763 -0.924331
upperback -1.88606 3.41947 0.759333
thorax 1.04186 1.71324 1.50918
lowerneck -9.53337 -1.63216 2.70437
upperneck -2.65904 -2.44407 0.794273
head 0.733444 -1.22524 -0.287098
lclavicle -0 0 0
lhumerus -41.5043 -12.8032 97.0399
lradius 39.0048 -0 0
lwrist 5.82774 0 0
lhand -11.4091 5.54334 0.00110331
lfingers 0 -0 0
lthumb 14.6263 35.0074 0.00102647
rclavicle -0 0 0
rhumerus -40.5725 -5.06791 -88.7755
rradius 39.0913 -0 0
rwrist 11.1447 0 0
rhand -26.8142 -19.9242 1.46453e-05
rfingers 0 -0 0
rthumb -0.240629 -49.9038 1.41093e-05
36
root 5.96913 16.9015 -28.0778 10.0256 -1.87695 -2.17374
lfemur -20.1012 1.67309 -19.8209
ltibia 33.7015 0 0
lfoot -35.8574 4.26421 0
ltoes 35.874 0 0
rfemur -16.8063 7.39226 19.5132
rtibia 30.4968 0 0
rfoot -27.3152 -19.2078 0
rtoes 14.4027 0 0
lowerback -5.56804 2.52222 -0.843564
upperback -1.86292 3.39584 0.675257
thorax 1.11046 1.70037 1.38064
lowerneck -9.51818 -1.61384 2.74008
upperneck -2.70871 -2.42252 0.859358
head 0.715568 -1.21433 -0.271487
lclavicle -4.49253e-14 -2.88238e-15 0
lhumerus -41.4952 -12.8889 97.0002
lradius 39.2435 0 0
lwrist 5.99353 0 0
lhand -11.51 5.33451 0
lfingers 7.12502 0 0
lthumb 14.5291 34.8057 0
rclavicle -4.49253e-14 -2.88238e-15 0
rhumerus -40.5062 -5.05506 -88.8996
rradius 39.0384 0 0
rwrist 11.1885 0 0
rhand -26.7944 -19.91 0
rfingers 7.12502 0 0
rthumb -0.221556 -49.8897 0
37
root 5.96213 16.9011 -28.0788 10.0514 -1.8271 -2.14549
lfemur -20.1493 1.62536 -19.819
ltibia 33.7299 -0 0
lfoot -35.7651 4.25576 -4.07977e-05
ltoes 35.779 -0 0
rfemur -16.8234 7.21704 19.5062
rtibia 30.4798 -0 0
rfoot -27.2904 -19.1306 0.00010017
rtoes 13.8497 -0 0
lowerback -5.59896 2.48667 -0.737969
upperback -1.84438 3.34416 0.589757
thorax 1.15855 1.67365 1.23297
lowerneck -9.51658 -1.59979 2.77376
upperneck -2.75127 -2.40686 0.918034
head 0.702188 -1.20644 -0.258052
lclavicle -0 0 0
lhumerus -41.4827 -12.9255 96.9081
lradius 39.4151 -0 0
lwrist 6.09696 0 0
lhand -11.5618 5.05216 0.000765592
lfingers 0 -0 0
lthumb 14.4792 34.5269 0.000728237
rclavicle -0 0 0
rhumerus -40.4601 -5.04896 -89.0405
rradius 39.0253 -0 0
rwrist 11.1378 0 0
rhand -26.7794 -19.9811 -5.58613e-05
rfingers 0 -0 0
rthumb -0.207054 -49.9608 -5.39548e-05
38
root 5.95513 16.9007 -28.0798 10.0772 -1.77726 -2.11722
lfemur -20.1974 1.57763 -19.817
ltibia 33.7582 -0 0
lfoot -35.6729 4.24732 -6.79962e-05
ltoes 35.6839 -0 0
rfemur -16.8404 7.04181 19.4993
rtibia 30.4628 -0 0
rfoot -27.2656 -19.0534 0.00016695
rtoes 13.2967 -0 0
lowerback -5.62995 2.45118 -0.632357
upperback -1.82576 3.2925 0.504245
thorax 1.2067 1.64705 1.08527
lowerneck -9.51498 -1.58575 2.80744
upperneck -2.79382 -2.39117 0.976698
head 0.688809 -1.19854 -0.244619
lclavicle -0 0 0
lhumerus -41.4701 -12.962 96.8159
lradius 39.5867 -0 0
lwrist 6.20039 0 0
lhand -11.6136 4.76982 0.001276
lfingers 0 -0 0
lthumb 14.4293 34.2481 0.00121374
rclavicle -0 0 0
rhumerus -40.4139 -5.04274 -89.1813
rradius 39.0122 -0 0
rwrist 11.0871 0 0
rhand -26.7644 -20.0521 -9.31023e-05
rfingers 0 -0 0
rthumb -0.192552 -50.0318 -8.99248e-05
39
root 5.94813 16.9003 -28.0808 10.103 -1.72743 -2.08893
lfemur -20.2455 1.5299 -19.815
ltibia 33.7866 -0 0
lfoot -35.5806 4.23887 -8.15955e-05
ltoes 35.5889 -0 0
rfemur -16.8575 6.86659 19.4925
rtibia 30.4458 -0 0
rfoot -27.2408 -18.9762 0.00020034
rtoes 12.7437 -0 0
lowerback -5.66101 2.41575 -0.526729
upperback -1.80706 3.24088 0.41872
thorax 1.25493 1.62058 0.937557
lowerneck -9.51336 -1.57171 2.84112
upperneck -2.83634 -2.37542 1.03535
head 0.675433 -1.19064 -0.231188
lclavicle -0 0 0
lhumerus -41.4575 -12.9985 96.7237
lradius 39.7583 -0 0
lwrist 6.30382 0 0
lhand -11.6654 4.48747 0.0015312
lfingers 0 -0 0
lthumb 14.3794 33.9693 0.00145649
rclavicle -0 0 0
rhumerus -40.3678 -5.03641 -89.3222
rradius 38.9991 -0 0
rwrist 11.0364 0 0
rhand -26.7494 -20.1232 -0.000111723
rfingers 0 -0 0
rthumb -0.17805 -50.1029 -0.00010791
40
root 5.94112 16.8999 -28.0818 10.1289 -1.67762 -2.06062
lfemur -20.2937 1.48217 -19.8129
ltibia 33.8149 -0 0
lfoot -35.4884 4.23043 -8.15955e-05
ltoes 35.4939 -0 0
rfemur -16.8745 6.69136 19.4857
rtibia 30.4288 -0 0
rfoot -27.2161 -18.8991 0.00020034
rtoes 12.1908 -0 0
lowerback -5.69213 2.38037 -0.421085
upperback -1.78829 3.18928 0.333183
thorax 1.30322 1.59423 0.789822
lowerneck -9.51174 -1.55766 2.8748
upperneck -2.87886 -2.35964 1.09399
head 0.662058 -1.18273 -0.217759
lclavicle -0 0 0
lhumerus -41.4448 -13.035 96.6315
lradius 39.93 -0 0
lwrist 6.40726 0 0
lhand -11.7171 4.20512 0.0015312
lfingers 0 -0 0
lthumb 14.3296 33.6905 0.00145649
rclavicle -0 0 0
rhumerus -40.3217 -5.02997 -89.463
rradius 38.986 -0 0
rwrist 10.9858 0 0
rhand -26.7343 -20.1942 -0.000111723
rfingers 0 -0 0
rthumb -0.163549 -50.1739 -0.00010791
41
root 5.93412 16.8995 -28.0828 10.1548 -1.62782 -2.03228
lfemur -20.3418 1.43445 -19.8108
ltibia 33.8433 -0 0
lfoot -35.3961 4.22198 -6.79962e-05
ltoes 35.3989 -0 0
rfemur -16.8914 6.51613 19.4789
rtibia 30.4118 -0 0
rfoot -27.1913 -18.8219 0.00016695
rtoes 11.6378 -0 0
lowerback -5.72331 2.34505 -0.315424
upperback -1.76944 3.13771 0.247634
thorax 1.35157 1.56801 0.642066
lowerneck -9.51011 -1.54362 2.90848
upperneck -2.92135 -2.34381 1.15261
head 0.648686 -1.17482 -0.204332
lclavicle -0 0 0
lhumerus -41.432 -13.0715 96.5393
lradius 40.1016 -0 0
lwrist 6.51069 0 0
lhand -11.7689 3.92277 0.001276
lfingers 0 -0 0
lthumb 14.2797 33.4117 0.00121374
rclavicle -0 0 0
rhumerus -40.2756 -5.02342 -89.6038
rradius 38.9729 -0 0
rwrist 10.9351 0 0
rhand -26.7193 -20.2653 -9.31023e-05
rfingers 0 -0 0
rthumb -0.149047 -50.245 -8.99248e-05
42
root 5.92712 16.8991 -28.0838 10.1807 -1.57803 -2.00393
lfemur -20.3899 1.38672 -19.8087
ltibia 33.8716 -0 0
lfoot -35.3039 4.21354 -4.07977e-05
ltoes 35.3038 -0 0
rfemur -16.9084 6.34089 19.4722
rtibia 30.3948 -0 0
rfoot -27.1665 -18.7447 0.00010017
rtoes 11.0848 -0 0
lowerback -5.75456 2.30979 -0.209746
upperback -1.75051 3.08616 0.162071
thorax 1.4 1.54191 0.494291
lowerneck -9.50847 -1.52958 2.94216
upperneck -2.96383 -2.32794 1.21123
head 0.635315 -1.16691 -0.190906
lclavicle -0 0 0
lhumerus -41.4192 -13.108 96.4471
lradius 40.2732 -0 0
lwrist 6.61412 0 0
lhand -11.8207 3.64043 0.000765592
lfingers 0 -0 0
lthumb 14.2298 33.1329 0.000728237
rclavicle -0 0 0
rhumerus -40.2296 -5.01675 -89.7447
rradius 38.9598 -0 0
rwrist 10.8844 0 0
rhand -26.7043 -20.3363 -5.58613e-05
rfingers 0 -0 0
rthumb -0.134545 -50.316 -5.39548e-05
43
root 5.92012 16.8987 -28.0848 10.2066 -1.52826 -1.97555
lfemur -20.438 1.339 -19.8065
ltibia 33.9 0 0
lfoot -35.2116 4.20509 0
ltoes 35.2088 0 0
rfemur -16.9253 6.16566 19.4656
rtibia 30.3778 0 0
rfoot -27.1417 -18.6675 0
rtoes 10.5318 0 0
lowerback -5.78587 2.27459 -0.104052
upperback -1.73151 3.03465 0.0764956
thorax 1.44849 1.51594 0.346495
lowerneck -9.50682 -1.51554 2.97584
upperneck -3.00629 -2.31202 1.26983
head 0.621946 -1.159 -0.177483
lclavicle -2.5842e-15 6.16232e-15 0
lhumerus -41.4063 -13.1444 96.3548
lradius 40.4448 0 0
lwrist 6.71755 0 0
lhand -11.8725 3.35808 0
lfingers 7.12502 0 0
lthumb 14.1799 32.8541 0
rclavicle -2.5842e-15 6.16232e-15 0
rhumerus -40.1835 -5.00997 -89.8855
rradius 38.9467 0 0
rwrist 10.8337 0 0
rhand -26.6893 -20.4074 0
rfingers 7.12502 0 0
rthumb -0.120043 -50.3871 0
44
root 5.91467 16.8949 -28.0888 10.2827 -1.34066 -1.92541
lfemur -20.7191 1.6694 -19.8529
ltibia 34.1862 -0 0
lfoot -35 3.62354 -0.00644594
ltoes 35.3421 -0 0
rfemur -16.9974 5.70117 19.4335
rtibia 30.3933 -0 0
rfoot -27.2336 -18.4675 -0.00096275
rtoes 9.60577 -0 0
lowerback -5.79048 2.22386 0.00311155
upperback -1.72441 2.96265 -0.0153552
thorax 1.46775 1.47992 0.187896
lowerneck -9.52557 -1.52971 2.96709
upperneck -3.09263 -2.329 1.34467
head 0.598561 -1.16746 -0.153013
lclavicle -0 0 0
lhumerus -41.3937 -13.2578 96.2575
lradius 40.6437 -0 0
lwrist 6.8016 0 0
lhand -11.792 3.31941 -0.000162999
lfingers 0 -0 0
lthumb 14.2575 32.8099 -0.000179549
rclavicle -0 0 0
rhumerus -40.1747 -4.85132 -90.0771
rradius 39.0762 -0 0
rwrist 10.6152 0 0
rhand -26.605 -20.5105 -0.000454952
rfingers 0 -0 0
rthumb -0.0386249 -50.4901 -0.000439098
45
root 5.90923 16.8911 -28.0928 10.359 -1.15312 -1.87502
lfemur -21.0004 1.99956 -19.9009
ltibia 34.4723 -0 0
lfoot -34.7883 3.04197 -0.0107437
ltoes 35.4755 -0 0
rfemur -17.0693 5.23664 19.402
rtibia 30.4088 -0 0
rfoot -27.3256 -18.2675 -0.00160459
rtoes 8.67974 -0 0
lowerback -5.79518 2.17314 0.110276
upperback -1.7172 2.89066 -0.107209
thorax 1.4871 1.44396 0.029287
lowerneck -9.54431 -1.54388 2.95834
upperneck -3.17899 -2.34588 1.41954
head 0.575173 -1.17591 -0.128538
lclavicle -0 0 0
lhumerus -41.3808 -13.3711 96.1601
lradius 40.8427 -0 0
lwrist 6.88566 0 0
lhand -11.7115 3.28074 -0.000271665
lfingers 0 -0 0
lthumb 14.335 32.7657 -0.000299249
rclavicle -0 0 0
rhumerus -40.1663 -4.69265 -90.2687
rradius 39.2058 -0 0
rwrist 10.3967 0 0
rhand -26.5207 -20.6135 -0.000758255
rfingers 0 -0 0
rthumb 0.0427938 -50.5931 -0.000731831
46
root 5.90378 16.8873 -28.0968 10.4354 -0.965657 -1.82438
lfemur -21.2822 2.32949 -19.9506
ltibia 34.7585 -0 0
lfoot -34.5766 2.4604 -0.0128926
ltoes 35.6088 -0 0
rfemur -17.1408 4.77206 19.3712
rtibia 30.4243 -0 0
rfoot -27.4175 -18.0675 -0.00192551
rtoes 7.75371 -0 0
lowerback -5.79998 2.12242 0.21744
upperback -1.70988 2.81868 -0.199066
thorax 1.50655 1.40805 -0.129331
lowerneck -9.56305 -1.55806 2.94959
upperneck -3.26537 -2.36263 1.49443
head 0.551781 -1.18435 -0.104061
lclavicle -0 0 0
lhumerus -41.3678 -13.4844 96.0627
lradius 41.0416 -0 0
lwrist 6.96971 0 0
lhand -11.631 3.24207 -0.000325999
lfingers 0 -0 0
lthumb 14.4126 32.7215 -0.000359099
rclavicle -0 0 0
rhumerus -40.1586 -4.53394 -90.4602
rradius 39.3353 -0 0
rwrist 10.1781 0 0
rhand -26.4364 -20.7166 -0.000909907
rfingers 0 -0 0
rthumb 0.124213 -50.6961 -0.000878198
47
root 5.89834 16.8835 -28.1007 10.512 -0.778258 -1.7735
lfemur -21.5642 2.65916 -20.0019
ltibia 35.0446 -0 0
lfoot -34.3649 1.87881 -0.0128926
ltoes 35.7421 -0 0
rfemur -17.212 4.30746 19.3409
rtibia 30.4399 -0 0
rfoot -27.5094 -17.8674 -0.00192551
rtoes 6.82768 -0 0
lowerback -5.80488 2.07172 0.324606
upperback -1.70243 2.74671 -0.290927
thorax 1.52611 1.3722 -0.28796
lowerneck -9.58179 -1.57224 2.94085
upperneck -3.35178 -2.37928 1.56935
head 0.528385 -1.19277 -0.0795799
lclavicle -0 0 0
lhumerus -41.3545 -13.5977 95.9652
lradius 41.2405 -0 0
lwrist 7.05377 0 0
lhand -11.5505 3.20339 -0.000325999
lfingers 0 -0 0
lthumb 14.4901 32.6772 -0.000359099
rclavicle -0 0 0
rhumerus -40.1513 -4.37522 -90.6516
rradius 39.4648 -0 0
rwrist 9.9596 0 0
rhand -26.3521 -20.8197 -0.000909907
rfingers 0 -0 0
rthumb 0.205632 -50.7991 -0.000878198
